<svg height="512pt" viewBox="0 -106 512.00005 512" width="512pt" xmlns="http://www.w3.org/2000/svg"><path d="m456.015625 276.777344-13.964844-44.023438h-372.101562l-13.964844 44.023438c-2.414063 7.609375 3.265625 15.367187 11.246094 15.367187 4.804687 0 9.128906-2.914062 10.933593-7.367187l10.304688-25.421875h335.058594l10.304687 25.421875c1.804688 4.453125 6.128907 7.367187 10.933594 7.367187 7.984375 0 13.664063-7.757812 11.25-15.367187zm0 0" fill="#f9aa4b"/><path d="m78.082031 232.753906h-8.132812l-4.507813 14.214844h381.117188l-4.507813-14.214844zm0 0" fill="#c1762b"/><path d="m48.292969 77.53125-4.960938 114.273438h425.335938l-4.960938-114.273438c-1.699219-39.152344-33.9375-70.019531-73.128906-70.019531h-269.15625c-39.191406 0-71.429687 30.867187-73.128906 70.019531zm0 0" fill="#2176c7"/><path d="m463.707031 77.53125c-1.703125-39.152344-33.9375-70.019531-73.128906-70.019531h-32.539063c39.191407 0 71.429688 30.867187 73.128907 70.019531l4.960937 114.273438h32.535156zm0 0" fill="#165e9e"/><g fill="#7dcdf9"><path d="m182.175781 141.429688c-27.828125-6.9375-55.65625-6.9375-83.484375 0-10.023437 2.496093-17.039062 11.546874-17.039062 21.878906v16.195312h117.5625v-16.195312c0-10.332032-7.015625-19.382813-17.039063-21.878906zm0 0"/><path d="m299.734375 141.429688c-27.828125-6.9375-55.65625-6.9375-83.484375 0-10.023438 2.496093-17.035156 11.546874-17.035156 21.878906v16.195312h117.558594v-16.195312c0-10.332032-7.011719-19.382813-17.039063-21.878906zm0 0"/><path d="m417.296875 141.429688c-27.828125-6.9375-55.65625-6.9375-83.484375 0-10.027344 2.496093-17.039062 11.546874-17.039062 21.878906v16.195312h117.558593v-16.195312c0-10.332032-7.011719-19.382813-17.035156-21.878906zm0 0"/></g><path d="m455.445312 93.421875-16.917968 58.023437c-4.851563 16.625-20.089844 28.058594-37.410156 28.058594h-290.238282c-17.320312 0-32.558594-11.433594-37.40625-28.058594l-16.921875-58.023437c-3.808593-13.058594-17.355469-20.683594-30.496093-17.164063-13.144532 3.519532-21.066407 16.898438-17.832032 30.113282l17.882813 73.132812 6.273437 25.671875c4.101563 16.777344 19.132813 28.578125 36.40625 28.578125h374.433594c17.269531 0 32.300781-11.796875 36.402344-28.570312l6.285156-25.679688 17.871094-73.132812c3.230468-13.21875-4.691406-26.59375-17.832032-30.113282h-.003906c-13.140625-3.519531-26.6875 4.105469-30.496094 17.164063zm0 0" fill="#56a6e8"/><path d="m485.945312 76.257812h-.003906c-7.382812-1.976562-14.894531-.4375-20.734375 3.609376 8.269531 5.742187 12.558594 16.171874 10.035157 26.503906l-17.875 73.132812-6.28125 25.679688c-4.105469 16.773437-19.136719 28.570312-36.402344 28.570312h28.535156c17.269531 0 32.300781-11.796875 36.402344-28.570312l6.285156-25.679688 17.871094-73.132812c3.230468-13.21875-4.691406-26.59375-17.832032-30.113282zm0 0" fill="#2176c7"/><path d="m487.898438 69.011719c-.023438-.007813-.046876-.015625-.070313-.019531-5.875-1.5625-11.84375-1.375-17.34375.238281-5.585937-39.410157-39.261719-69.230469-79.894531-69.230469h-269.179688c-40.636718 0-74.3125 29.824219-79.894531 69.234375-5.523437-1.621094-11.519531-1.804687-17.414063-.222656-16.953124 4.535156-27.351562 22.097656-23.183593 39.140625l16.667969 68.164062c.984374 4.023438 5.042968 6.488282 9.070312 5.503906 4.023438-.984374 6.488281-5.042968 5.503906-9.066406l-16.667968-68.164062c-2.246094-9.183594 3.355468-18.644532 12.488281-21.089844 9.132812-2.445312 18.710937 2.949219 21.355469 12.019531l16.921874 58.027344c5.78125 19.820313 24.21875 33.460937 44.609376 33.460937h290.261718c20.519532 0 38.863282-13.757812 44.609375-33.460937l16.921875-58.027344c2.648438-9.070312 12.226563-14.464843 21.355469-12.019531.019531.003906.039063.011719.058594.015625 9.097656 2.46875 14.675781 11.90625 12.4375 21.074219l-24.160157 98.816406c-3.097656 12.671875-13.898437 21.746094-26.714843 22.761719-1.074219-.582031-2.292969-.90625-3.574219-.90625h-372.125c-1.28125 0-2.5.324219-3.574219.90625-12.816406-1.019531-23.617187-10.09375-26.714843-22.769531-.980469-4.019532-5.039063-6.484376-9.066407-5.503907-4.023437.984375-6.488281 5.042969-5.503906 9.066407 4.195313 17.175781 17.816406 29.945312 34.585937 33.382812l-10.84375 34.175781c-1.878906 5.933594-.851562 12.214844 2.824219 17.238281 3.675781 5.019532 9.351563 7.898438 15.574219 7.898438 7.898438 0 14.921875-4.730469 17.886719-12.050781l8.40625-20.742188h324.976562l8.40625 20.742188c2.964844 7.320312 9.988281 12.050781 17.886719 12.050781 6.222656 0 11.898438-2.878906 15.574219-7.898438 3.675781-5.023437 4.703125-11.304687 2.824219-17.238281l-10.84375-34.175781c16.765624-3.4375 30.386718-16.203125 34.585937-33.371094l24.160156-98.824218c4.164063-17.042969-6.234375-34.601563-23.183593-39.136719zm-398.757813 94.234375c.027344-6.902344 4.6875-12.878906 11.351563-14.539063 26.5-6.597656 53.371093-6.597656 79.867187 0 6.679687 1.664063 11.347656 7.671875 11.347656 14.601563v8.695312h-80.835937c-8.257813 0-15.996094-3.289062-21.730469-8.757812zm311.988281 8.757812h-76.851562v-8.695312c0-.070313 0-.144532 0-.214844.09375-6.835938 4.738281-12.734375 11.351562-14.386719 26.496094-6.601562 53.371094-6.597656 79.863282 0 5.308593 1.324219 9.421874 5.460938 10.824218 10.652344-5.835937 7.761719-15.125 12.644531-25.1875 12.644531zm32.238282-29.621094c-3.808594-3.9375-8.699219-6.847656-14.246094-8.230468-28.902344-7.199219-58.214844-7.199219-87.121094 0-6.070312 1.515625-11.308594 4.808594-15.222656 9.246094-3.914063-4.4375-9.15625-7.734376-15.226563-9.246094-19.929687-4.96875-40.152343-6.527344-60.109375-4.640625-4.125.390625-7.152344 4.050781-6.761718 8.171875.390624 4.125 4.046874 7.144531 8.171874 6.761718 18.261719-1.726562 36.792969-.292968 55.074219 4.261719 6.613281 1.648438 11.253907 7.546875 11.347657 14.386719v.21875 8.695312h-102.5625v-8.699218c0-5.976563 3.511718-11.386719 8.949218-13.78125 3.792969-1.667969 5.511719-6.09375 3.84375-9.886719-1.667968-3.789063-6.097656-5.511719-9.886718-3.84375-4.054688 1.789063-7.578126 4.410156-10.398438 7.613281-3.914062-4.445312-9.15625-7.742187-15.230469-9.257812-28.90625-7.199219-58.214843-7.199219-87.125 0-7.164062 1.789062-13.167969 6.054687-17.207031 11.757812l-15.917969-54.589844c-1.535156-5.265624-4.332031-9.863281-7.964843-13.554687 1.574218-35.203125 30.390624-62.765625 65.636718-62.765625h269.179688c35.246094 0 64.054687 27.554688 65.636718 62.761719-3.636718 3.695312-6.429687 8.292969-7.964843 13.558593zm7.429687 139.589844-10.304687-25.425781c-1.148438-2.832031-3.898438-4.683594-6.953126-4.683594h-335.078124c-3.054688 0-5.804688 1.851563-6.953126 4.683594l-10.304687 25.425781c-2.050781 5.058594-9.742187 2.320313-8.082031-2.917968l11.988281-37.792969h361.78125l11.988281 37.792969c1.660156 5.234374-6.027344 7.988281-8.082031 2.917968zm0 0"/><path d="m150.378906 59.300781h-2.5v-2.5c0-4.144531-3.359375-7.5-7.5-7.5-4.144531 0-7.5 3.355469-7.5 7.5v2.5h-2.5c-4.144531 0-7.5 3.355469-7.5 7.5 0 4.140625 3.355469 7.5 7.5 7.5h2.5v2.5c0 4.140625 3.355469 7.5 7.5 7.5 4.140625 0 7.5-3.359375 7.5-7.5v-2.5h2.5c4.140625 0 7.5-3.359375 7.5-7.5 0-4.144531-3.355468-7.5-7.5-7.5zm0 0"/><path d="m227.460938 59.300781h-2.5v-2.5c0-4.144531-3.359376-7.5-7.5-7.5-4.144532 0-7.503907 3.355469-7.503907 7.5v2.5h-2.5c-4.140625 0-7.5 3.355469-7.5 7.5 0 4.140625 3.359375 7.5 7.5 7.5h2.5v2.5c0 4.140625 3.359375 7.5 7.503907 7.5 4.140624 0 7.5-3.359375 7.5-7.5v-2.5h2.5c4.140624 0 7.5-3.359375 7.5-7.5 0-4.144531-3.359376-7.5-7.5-7.5zm0 0"/><path d="m304.539062 59.300781h-2.5v-2.5c0-4.144531-3.355468-7.5-7.5-7.5-4.140624 0-7.5 3.355469-7.5 7.5v2.5h-2.5c-4.140624 0-7.5 3.355469-7.5 7.5 0 4.140625 3.359376 7.5 7.5 7.5h2.5v2.5c0 4.140625 3.359376 7.5 7.5 7.5 4.144532 0 7.5-3.359375 7.5-7.5v-2.5h2.5c4.144532 0 7.5-3.359375 7.5-7.5 0-4.144531-3.355468-7.5-7.5-7.5zm0 0"/><path d="m381.621094 59.300781h-2.5v-2.5c0-4.144531-3.355469-7.5-7.5-7.5-4.140625 0-7.5 3.355469-7.5 7.5v2.5h-2.5c-4.140625 0-7.5 3.355469-7.5 7.5 0 4.140625 3.359375 7.5 7.5 7.5h2.5v2.5c0 4.140625 3.359375 7.5 7.5 7.5 4.144531 0 7.5-3.359375 7.5-7.5v-2.5h2.5c4.144531 0 7.5-3.359375 7.5-7.5 0-4.144531-3.355469-7.5-7.5-7.5zm0 0"/></svg>