<svg id="Capa_1" enable-background="new 0 0 511.991 511.991" height="512" viewBox="0 0 511.991 511.991" width="512" xmlns="http://www.w3.org/2000/svg"><g><g><path d="m432.441 251.092c-9.55 23.055-10.151 51.557-.601 74.612l8.218 16.098h-354.722s-66.042-37.107 0-103.149l351.658-7.247z" fill="#f1f2f2"/><path d="m440.058 341.805h-354.72s-66.04-37.11 0-103.15l351.66-7.25-4.56 19.69c-2.11 5.11-3.79 10.48-5.01 16h-321.88c-12.47 0-22.61 10.14-22.61 22.6 0 12.47 10.14 22.61 22.61 22.61h322c1.08 4.61 2.51 9.1 4.29 13.4z" fill="#dee1e1"/><path d="m434.687 356.863-324.24-.511c-38.845 0-72.205-24.78-72.205-63.625 0-8.58-1.494-19.83 1.319-27.432 9.921-26.817 35.721-45.933 65.987-45.933h332.639c8.762 0 15.865 7.103 15.865 15.865 0 8.762-7.103 15.865-15.865 15.865h-251.75l-24.586 5.771-21.382-5.771h-34.921c-21.321 0-38.605 17.284-38.605 38.605 0 21.321 17.284 38.605 38.605 38.605h332.639c8.762 0 15.865 7.103 15.865 15.865 0 .632-.037 1.255-.109 1.868-.924 7.882-11.126 10.828-19.256 10.828z" fill="#b7e546"/><path d="m453.938 346.035c-.43 3.63-2.08 6.89-4.53 9.35-2.88 2.87-6.84 4.65-11.22 4.65l-164.337 9.849-168.303-9.849c-38.85 0-70.34-31.49-70.34-70.34 0-10.13 2.14-19.76 6-28.46v14.46c0 38.85 31.49 70.34 70.34 70.34z" fill="#abd641"/><path d="m186.437 297.343v-46.251h-32.967l-11.705 1.175.703 43.076c0 1.409 1.417 2.376 2.729 1.862l8.272-2.022 9.254-3.623c.469-.184.99-.184 1.458 0l19.526 7.646c1.312.513 2.73-.454 2.73-1.863z" fill="#ef5227"/><path d="m153.47 251.095v44.09l-10.27 4.02c-1.31.51-2.73-.45-2.73-1.86v-46.25z" fill="#d83724"/><path d="m386.846 178.975v22.55l-1 10c0 3.87-3.14 7-7 7l-266.51-1c-3.87 0-7-3.13-7-7l-2-31.55 136.813-6.538z" fill="#fdcd08"/><path d="m455.553 197.799c-6.26 15.431-12.559 30.656-18.82 46.088-3.742 9.224 2.98 19.332 12.857 19.332l11.576 1h28.159c9.877 0 16.599-10.108 12.857-19.333l-13.055-32.182-8.211-14.906h-25.363z" fill="#fdcd08"/><path d="m465.633 218.392c8.228.749 16.858-1.411 23.493-5.687l-7.02-17.544-11.601 3.468c0-.001.001-.002.001-.003l-15.123-2.018c-1.91 4.71-4.687 11.398-6.597 16.108 0 0 .001 0 .001.001-4.35 10.723-8.701 21.446-13.051 32.169-3.74 9.23 2.98 19.33 12.85 19.33h16c-9.87 0-16.59-10.1-12.85-19.33 3.251-8.008 6.499-16.015 9.748-24.023.673-1.661 2.365-2.633 4.149-2.471z" fill="#faab18"/><path d="m492.042 180.229c0-10.219-6.518-18.902-15.586-22.044-2.351-.815-5.768.635-8.392.635-12.749 0-20.596 8.541-20.596 21.41s9.538 20.59 22.287 20.59c2.625 0 4.35 2.268 6.701 1.454 9.068-3.142 15.586-11.825 15.586-22.045z" fill="#fdcd08"/><path d="m476.456 202.275c-2.35.82-4.88 1.26-7.5 1.26-12.75 0-23.08-10.44-23.08-23.31 0-12.86 10.33-23.3 23.08-23.3 2.62 0 5.15.44 7.5 1.26-9.07 3.14-15.58 11.83-15.58 22.04 0 10.22 6.51 18.91 15.58 22.05z" fill="#faab18"/><path d="m470.805 103.279-65.959 22.834-17.999-1.846-128.029 52.398c-8.893 3.079-18.563 3.079-27.456 0l-128.026-50.355-18-.196-65.963-22.835c-7.53-2.607-7.53-13.256 0-15.862l214.49-74.252c7.272-2.518 15.18-2.518 22.452 0l214.49 74.252c7.53 2.606 7.53 13.255 0 15.862z" fill="#868491"/><path d="m404.846 119.345v6.77l-146.03 50.55c-8.89 3.08-18.56 3.08-27.46 0l-146.02-50.55v-6.77c0-14.27 10.19-26.45 24.24-28.98 44.64-8 90.23-12.05 135.51-12.05s90.88 4.05 135.52 12.05c6.8 1.23 12.97 4.81 17.39 10.1 4.4 5.25 6.85 11.97 6.85 18.88z" fill="#77777f"/><path d="m386.846 119.345v59.63h-280.51l-1-57.63c0-5.54 3.97-10.28 9.42-11.26 2.857-.512 3.717-3.007 6.579-3.486 40.965-6.851 82.362-10.284 123.751-10.284 44.29 0 88.58 3.93 132.34 11.77 2.72.49 5.08 1.92 6.75 3.92 1.68 2 2.67 4.57 2.67 7.34z" fill="#868491"/><path d="m386.846 201.525v11c0 3.87-3.14 7-7 7h-269.51c-3.866 0-7-3.134-7-7v-33.55l9-6.538 9 6.538v17.55c0 2.761 2.239 5 5 5z" fill="#faab18"/><path d="m121.336 106.605v72.37h-18v-59.63c0-5.54 3.97-10.28 9.42-11.26 2.86-.51 5.72-1.01 8.58-1.48z" fill="#77777f"/><path d="m458.864 466.143c-9.55-23.055-9.55-48.959 0-72.014l3.043-13.518h-408.913s-46.031 50.043 2.991 99.064l408.584 3.064z" fill="#f1f2f2"/><path d="m464.568 482.735-408.58-3.06c-49.03-49.02-2.99-99.06-2.99-99.06l410.874.759-5.004 12.751c-1.85 4.46-3.34 9.02-4.47 13.64h-375.29c-12.47 0-22.61 10.14-22.61 22.6 0 12.47 10.14 22.61 22.61 22.61h375.41c1.12 4.46 2.57 8.87 4.35 13.17z" fill="#dee1e1"/><path d="m457.681 497.203-369.702-.681c-38.845 0-73.021-21.921-73.021-60.766 0-12.328-3.015-29.304 2.557-39.379 11.985-21.67 35.075-36.344 61.591-36.344h385.523c8.762 0 15.865 7.103 15.865 15.865 0 8.762-7.103 15.865-15.865 15.865h-95.521l-24.959 5.525-21.008-5.525h-244.035c-21.321 0-38.605 17.284-38.605 38.605 0 21.321 17.284 38.605 38.605 38.605h385.523c8.762 0 15.865 7.103 15.865 15.865 0 .979-.089 1.936-.258 2.866-1.349 7.394-14.772 9.499-22.555 9.499z" fill="#ef5227"/><path d="m480.238 487.705c-.59 3.24-2.16 6.12-4.39 8.35-2.87 2.87-6.84 4.65-11.22 4.65h-385.52c-38.85 0-70.34-31.49-70.34-70.34 0-13.9 4.03-26.86 11-37.78v24.78c0 38.85 31.49 70.34 70.34 70.34z" fill="#d83724"/><path d="m369.108 438.374v-46.625h-30.968l-13.736.836.736 43.789c0 1.409 1.418 2.376 2.729 1.862l10.27-2.805 7.256-2.841c.469-.184.99-.184 1.458 0l19.526 7.646c1.312.514 2.729-.453 2.729-1.862z" fill="#fdcd08"/><path d="m338.14 391.745v43.69l-12.27 4.8c-1.31.51-2.73-.45-2.73-1.86v-46.63z" fill="#faab18"/></g><path d="m510.417 238.81-16.646-41.034c4.502-5.312 7.229-12.194 7.229-19.708 0-14.16-9.661-26.09-22.693-29.457-.002-1.973.002-51.395 0-53.491 0-6.813-4.16-12.655-10.598-14.884l-210.857-72.995c-8.699-3.013-18.28-3.012-26.98 0l-52.499 18.174c-3.914 1.354-5.989 5.626-4.634 9.54 1.355 3.916 5.626 5.988 9.541 4.634l52.499-18.174c5.533-1.917 11.629-1.917 17.165 0l210.857 72.994c.225.078.505.176.505.71s-.28.632-.505.71l-72.587 25.129v-2.246c0-9.087-6.492-16.847-15.437-18.45-87.201-15.64-175.631-15.64-262.832 0-8.944 1.604-15.437 9.363-15.437 18.45v2.246l-72.586-25.129c-.225-.078-.505-.176-.505-.71s.28-.632.505-.71l124.676-43.16c3.914-1.354 5.989-5.626 4.634-9.54-1.355-3.915-5.627-5.988-9.541-4.634l-124.676 43.161c-6.438 2.229-10.598 8.07-10.598 14.884s4.16 12.655 10.598 14.884l77.494 26.827v74.226c-39.285 3.911-70.067 37.15-70.067 77.447 0 26.928 13.75 50.701 34.593 64.681-34.867 7.704-61.035 38.839-61.035 75.989 0 42.918 34.917 77.835 77.835 77.835h385.523c12.884 0 23.365-10.481 23.365-23.365 0-12.725-10.226-23.099-22.891-23.353-7.836-20.138-7.896-42.063-.181-62.229 12.749-.158 23.072-10.572 23.072-23.358 0-12.884-10.481-23.365-23.365-23.365h-4.631c1-2.599 1.554-5.418 1.554-8.365 0-12.884-10.481-23.365-23.365-23.365h-.202c-7.266-18.839-7.738-39.225-1.415-58.266 3.969 4.296 9.553 6.793 15.485 6.793h40.044c7.027 0 13.575-3.493 17.515-9.345 3.979-5.907 4.754-13.377 2.074-19.981zm-24.417-60.742c0 8.495-6.816 15.406-15.193 15.406s-15.193-6.911-15.193-15.406 6.816-15.407 15.193-15.407 15.193 6.911 15.193 15.407zm-22.693-66.541v37.084c-13.032 3.367-22.693 15.297-22.693 29.457 0 7.515 2.727 14.396 7.229 19.708l-5.23 12.891h-52.398v-73.836zm-348.714 3.499c85.444-15.322 172.093-15.322 257.537 0 1.787.321 3.084 1.871 3.084 3.687v51.117h-46.214c-4.142 0-7.5 3.357-7.5 7.5s3.358 7.5 7.5 7.5h46.214v25.838h-263.705v-25.838h182.491c4.142 0 7.5-3.357 7.5-7.5s-3.358-7.5-7.5-7.5h-182.491v-51.117c0-1.816 1.297-3.366 3.084-3.687zm357.131 259.677c0 4.612-3.752 8.365-8.365 8.365h-385.524c-25.422 0-46.105 20.683-46.105 46.105s20.683 46.104 46.105 46.104h296.165c4.142 0 7.5-3.357 7.5-7.5s-3.358-7.5-7.5-7.5h-296.165c-17.151 0-31.105-13.953-31.105-31.104s13.954-31.105 31.105-31.105h236.535v42.042c0 2.479 1.225 4.798 3.273 6.195 2.047 1.397 4.653 1.694 6.962.788l20.249-7.929 20.249 7.929c.884.347 1.811.517 2.734.517 1.488 0 2.964-.442 4.228-1.305 2.048-1.397 3.273-3.716 3.273-6.195v-42.042h72.397c-6.518 20.321-6.471 41.909.148 62.21h-38.883c-4.142 0-7.5 3.357-7.5 7.5s3.358 7.5 7.5 7.5h54.358c4.613 0 8.365 3.753 8.365 8.365s-3.752 8.365-8.365 8.365h-385.523c-34.647.001-62.835-28.187-62.835-62.835s28.188-62.835 62.835-62.835h385.523c4.613 0 8.366 3.753 8.366 8.365zm-142.354 23.366h30.968v31.051l-12.749-4.992c-1.759-.689-3.711-.689-5.47 0l-12.749 4.992zm-128.37-63.461h235.917c4.613 0 8.365 3.753 8.365 8.365s-3.752 8.365-8.365 8.365h-332.64c-34.647 0-62.835-28.188-62.835-62.836s28.188-62.835 62.835-62.835h332.25c-1.853 4.974-5.277 12.025-6.429 16.73h-325.821c-25.422 0-46.105 20.683-46.105 46.105s20.683 46.104 46.105 46.104h61.723c4.142 0 7.5-3.357 7.5-7.5s-3.358-7.5-7.5-7.5h-61.723c-17.151 0-31.105-13.953-31.105-31.104s13.954-31.105 31.105-31.105h27.421v41.682c0 2.479 1.225 4.798 3.273 6.195 2.047 1.397 4.654 1.693 6.962.788l20.249-7.929 20.249 7.929c.884.347 1.811.517 2.734.517 1.488 0 2.964-.442 4.228-1.305 2.048-1.397 3.273-3.716 3.273-6.195v-41.682h228.118c-6.568 20.311-6.568 41.899 0 62.21h-219.784c-4.142 0-7.5 3.357-7.5 7.5s3.358 7.501 7.5 7.501zm-54.302-77.21h30.968v30.69l-12.749-4.992c-1.759-.689-3.711-.689-5.47 0l-12.749 4.992zm349.204-6.987c-.551.819-2.15 2.724-5.074 2.724h-40.044c-2.924 0-4.522-1.905-5.074-2.724-1.204-1.787-1.428-3.961-.616-5.963l15.344-37.822c3.235 1.195 6.727 1.847 10.368 1.847s7.133-.652 10.368-1.847l15.343 37.822c.813 2.003.589 4.176-.615 5.963z"/></g></svg>