<svg fill="none" height="512" viewBox="0 0 24 24" width="512" xmlns="http://www.w3.org/2000/svg"><path d="m18.75 15c0-.4142-.3358-.75-.75-.75s-.75.3358-.75.75zm-1.5 6c0 .4142.3358.75.75.75s.75-.3358.75-.75zm-12.13522-13.48653c-.40933-.06339-.79255.21705-.85594.62639-.0634.40933.21704.79255.62638.85594zm3.61471 2.47392c.38634.14941.82063-.04268.97003-.42901s-.04268-.82063-.42901-.97002zm-3.61471 1.52611c-.40933-.0634-.79255.217-.85594.6264-.0634.4093.21704.7925.62638.8559zm1.70175 1.8721c.40162.1013.80935-.1421.91068-.5438.10133-.4016-.14211-.8093-.54374-.9107zm5.93347-7.33223c0-.41422-.3358-.75-.75-.75s-.75.33578-.75.75zm-.75 14.94663v.75c.4142 0 .75-.3358.75-.75zm-8.00567-17.98873.08421-.74526zm7.32247 2.41318.4304-.61422zm-7.32247 12.94785.08421-.7452zm7.32247 2.4132.4304-.6142zm8.6889-17.77423-.0842-.74526zm-7.3225 2.41318-.4304-.61422zm8.5668 8.57555c0 .4142.3358.75.75.75s.75-.3358.75-.75zm-.25 4.75c.4142 0 .75-.3358.75-.75s-.3358-.75-.75-.75zm-6-1.5c-.4142 0-.75.3358-.75.75s.3358.75.75.75zm2.25-2.25v6h1.5v-6zm-12.36478-6.0042c1.22877.1903 2.58563.50487 3.84427.99159l.54102-1.39903c-1.3858-.53589-2.85295-.87313-4.15573-1.07489zm0 4c.61924.0959 1.27291.2237 1.93131.3898l.36694-1.4545c-.709-.1788-1.40895-.3155-2.06869-.4176zm6.36478-6.94243v14.94663h1.5v-14.94663zm-7.33988-2.29684c2.17634.24592 5.00666.90195 6.97628 2.28213l.8608-1.22843c-2.27772-1.59607-5.40825-2.28879-7.66866-2.54422zm0 15.36107c2.17634.2459 5.00666.9019 6.97628 2.2821l.8608-1.2284c-2.27772-1.5961-5.40825-2.2888-7.66866-2.5442zm-2.66012-14.18242v11.26482h1.5v-11.26482zm2.82854 12.69192c-.74977-.0848-1.32854-.7081-1.32854-1.4271h-1.5c0 1.5432 1.21408 2.7542 2.66012 2.9176zm0-15.36109c-1.612-.18215-2.82854 1.16328-2.82854 2.66917h1.5c0-.75642.57631-1.24462 1.16012-1.17865zm15.84296 0c-2.2604.25543-5.391.94815-7.6687 2.54422l.8608 1.22843c1.9696-1.38018 4.7999-2.03621 6.9763-2.28213zm1.3285 2.66917v9.06482h1.5v-9.06482zm-1.1601-1.17865c.5838-.06597 1.1601.42223 1.1601 1.17865h1.5c0-1.50589-1.2165-2.85132-2.8285-2.66917zm-9.2035 2.28213c.6666.46705 1.5606.46705 2.2272 0l-.8608-1.22843c-.1498.10496-.3558.10496-.5056 0zm0 15.36104c.3345.2344.7254.3503 1.1136.3503v-1.5c-.0909 0-.1791-.0271-.2528-.0787zm10.1136-4.1497h-6v1.5h6z" fill="#28303f"/></svg>