<svg id="Capa_1" enable-background="new 0 0 512 512" height="512" viewBox="0 0 512 512" width="512" xmlns="http://www.w3.org/2000/svg"><g><g><path d="m418.303 502.44-325.927-.248c-11.046 0-20-8.954-20-20l-.917-451.632c0-10.026 6.419-21.389 16.042-22.836.978-.148 1.98-.224 2.999-.224h331c11.046 0 20 8.954 20 20v457c0 1.019-.076 2.021-.223 2.999-1.448 9.623-12.948 14.941-22.974 14.941z" fill="#f9f8f9"/><path d="m441.28 487.5c-1.45 9.63-9.75 17-19.78 17h-331c-11.05 0-20-8.95-20-20v-457c0-10.03 7.37-18.33 17-19.78v469.78c0 5.52 4.48 10 10 10z" fill="#e8e8e8"/><g fill="#ffa95f"><path d="m147.932 213h-24c-1.657 0-3-1.343-3-3v-24c0-1.657 1.343-3 3-3h24c1.657 0 3 1.343 3 3v24c0 1.657-1.343 3-3 3z"/><path d="m147.932 273h-24c-1.657 0-3-1.343-3-3v-24c0-1.657 1.343-3 3-3h24c1.657 0 3 1.343 3 3v24c0 1.657-1.343 3-3 3z"/><path d="m147.932 423h-24c-1.657 0-3-1.343-3-3v-24c0-1.657 1.343-3 3-3h24c1.657 0 3 1.343 3 3v24c0 1.657-1.343 3-3 3z"/></g></g><g><path d="m70.5 411.776c4.143 0 7.5-3.358 7.5-7.5v-376.776c0-6.893 5.607-12.5 12.5-12.5h45.309c4.143 0 7.5-3.358 7.5-7.5s-3.357-7.5-7.5-7.5h-45.309c-15.163 0-27.5 12.336-27.5 27.5v376.776c0 4.142 3.357 7.5 7.5 7.5z"/><path d="m441.5 181.755c-4.143 0-7.5 3.358-7.5 7.5v295.245c0 6.893-5.607 12.5-12.5 12.5h-331c-6.893 0-12.5-5.607-12.5-12.5v-44.904c0-4.142-3.357-7.5-7.5-7.5s-7.5 3.358-7.5 7.5v44.904c0 15.164 12.337 27.5 27.5 27.5h331c15.163 0 27.5-12.336 27.5-27.5v-295.245c0-4.142-3.357-7.5-7.5-7.5z"/><path d="m421.5 0h-250.202c-4.143 0-7.5 3.358-7.5 7.5s3.357 7.5 7.5 7.5h250.202c6.893 0 12.5 5.607 12.5 12.5v126.521c0 4.142 3.357 7.5 7.5 7.5s7.5-3.358 7.5-7.5v-126.521c0-15.164-12.337-27.5-27.5-27.5z"/><path d="m398.863 66.666c-.788-14.024-13.356-25.666-27.573-25.666-.167 0-.335.001-.502.005-13.614.263-24.866 10.101-26.756 23.392-.583 4.101 2.27 7.898 6.37 8.481 4.106.581 7.898-2.269 8.481-6.37.834-5.871 6.076-10.388 12.193-10.506 6.354-.148 12.464 5.361 12.81 11.504.355 6.335-4.419 11.952-10.868 12.786-5.235.676-9.184 5.16-9.184 10.429v17.779c0 4.142 3.357 7.5 7.5 7.5s7.5-3.358 7.5-7.5v-14.123c12.186-3.409 20.748-14.893 20.029-27.711z"/><path d="m371.427 131c-4.143 0-7.5 3.358-7.5 7.5s3.357 7.5 7.5 7.5h.011c4.143 0 7.494-3.358 7.494-7.5s-3.363-7.5-7.505-7.5z"/><path d="m177.222 78c0 4.142 3.357 7.5 7.5 7.5h133.574c4.143 0 7.5-3.358 7.5-7.5s-3.357-7.5-7.5-7.5h-133.574c-4.143 0-7.5 3.358-7.5 7.5z"/><path d="m154.722 70.5h-34.128c-4.143 0-7.5 3.358-7.5 7.5s3.357 7.5 7.5 7.5h34.128c4.143 0 7.5-3.358 7.5-7.5s-3.358-7.5-7.5-7.5z"/><path d="m243.796 55.5c4.143 0 7.5-3.358 7.5-7.5s-3.357-7.5-7.5-7.5h-18.351c-4.143 0-7.5 3.358-7.5 7.5s3.357 7.5 7.5 7.5z"/><path d="m195.445 40.5h-74.649c-4.143 0-7.5 3.358-7.5 7.5s3.357 7.5 7.5 7.5h74.649c4.143 0 7.5-3.358 7.5-7.5s-3.357-7.5-7.5-7.5z"/><path d="m318.296 115.5c4.143 0 7.5-3.358 7.5-7.5s-3.357-7.5-7.5-7.5h-47.851c-4.143 0-7.5 3.358-7.5 7.5s3.357 7.5 7.5 7.5z"/><path d="m113.296 108c0 4.142 3.357 7.5 7.5 7.5h119.649c4.143 0 7.5-3.358 7.5-7.5s-3.357-7.5-7.5-7.5h-119.649c-4.143 0-7.5 3.358-7.5 7.5z"/><path d="m120.796 145.5h150c4.143 0 7.5-3.358 7.5-7.5s-3.357-7.5-7.5-7.5h-150c-4.143 0-7.5 3.358-7.5 7.5s3.357 7.5 7.5 7.5z"/><path d="m158.432 186c0-5.79-4.71-10.5-10.5-10.5h-24c-5.79 0-10.5 4.71-10.5 10.5v24c0 5.79 4.71 10.5 10.5 10.5h24c5.79 0 10.5-4.71 10.5-10.5zm-15 19.5h-15v-15h15z"/><path d="m158.432 246c0-5.79-4.71-10.5-10.5-10.5h-24c-5.79 0-10.5 4.71-10.5 10.5v24c0 5.79 4.71 10.5 10.5 10.5h24c5.79 0 10.5-4.71 10.5-10.5zm-15 19.5h-15v-15h15z"/><path d="m113.432 420c0 5.79 4.71 10.5 10.5 10.5h24c5.79 0 10.5-4.71 10.5-10.5v-24c0-5.79-4.71-10.5-10.5-10.5h-24c-5.79 0-10.5 4.71-10.5 10.5zm15-19.5h15v15h-15z"/><path d="m233.432 183c0 4.142 3.357 7.5 7.5 7.5h149c4.143 0 7.5-3.358 7.5-7.5s-3.357-7.5-7.5-7.5h-149c-4.143 0-7.5 3.358-7.5 7.5z"/><path d="m210.932 175.5h-25c-4.143 0-7.5 3.358-7.5 7.5s3.357 7.5 7.5 7.5h25c4.143 0 7.5-3.358 7.5-7.5s-3.358-7.5-7.5-7.5z"/><path d="m389.932 220.5c4.143 0 7.5-3.358 7.5-7.5s-3.357-7.5-7.5-7.5h-37.563c-4.143 0-7.5 3.358-7.5 7.5s3.357 7.5 7.5 7.5z"/><path d="m322.368 205.5h-136.436c-4.143 0-7.5 3.358-7.5 7.5s3.357 7.5 7.5 7.5h136.437c4.143 0 7.5-3.358 7.5-7.5s-3.358-7.5-7.501-7.5z"/><path d="m178.432 243c0 4.142 3.357 7.5 7.5 7.5h204c4.143 0 7.5-3.358 7.5-7.5s-3.357-7.5-7.5-7.5h-204c-4.143 0-7.5 3.358-7.5 7.5z"/><path d="m185.932 280.5h40c4.143 0 7.5-3.358 7.5-7.5s-3.357-7.5-7.5-7.5h-40c-4.143 0-7.5 3.358-7.5 7.5s3.357 7.5 7.5 7.5z"/><path d="m389.932 295.5h-204c-4.143 0-7.5 3.358-7.5 7.5s3.357 7.5 7.5 7.5h204c4.143 0 7.5-3.358 7.5-7.5s-3.358-7.5-7.5-7.5z"/><path d="m389.932 325.5h-76c-4.143 0-7.5 3.358-7.5 7.5s3.357 7.5 7.5 7.5h76c4.143 0 7.5-3.358 7.5-7.5s-3.358-7.5-7.5-7.5z"/><path d="m283.932 325.5h-98c-4.143 0-7.5 3.358-7.5 7.5s3.357 7.5 7.5 7.5h98c4.143 0 7.5-3.358 7.5-7.5s-3.358-7.5-7.5-7.5z"/><path d="m291.432 363c0-4.142-3.357-7.5-7.5-7.5h-98c-4.143 0-7.5 3.358-7.5 7.5s3.357 7.5 7.5 7.5h98c4.142 0 7.5-3.358 7.5-7.5z"/><path d="m185.932 430.5h40c4.143 0 7.5-3.358 7.5-7.5s-3.357-7.5-7.5-7.5h-40c-4.143 0-7.5 3.358-7.5 7.5s3.357 7.5 7.5 7.5z"/><path d="m389.932 385.5h-13c-4.143 0-7.5 3.358-7.5 7.5s3.357 7.5 7.5 7.5h13c4.143 0 7.5-3.358 7.5-7.5s-3.358-7.5-7.5-7.5z"/><path d="m354.432 393c0-4.142-3.357-7.5-7.5-7.5h-101.032c-4.143 0-7.5 3.358-7.5 7.5s3.357 7.5 7.5 7.5h101.031c4.143 0 7.501-3.358 7.501-7.5z"/><path d="m185.932 400.5h29.968c4.143 0 7.5-3.358 7.5-7.5s-3.357-7.5-7.5-7.5h-29.969c-4.143 0-7.5 3.358-7.5 7.5s3.358 7.5 7.501 7.5z"/><path d="m120.932 471.5h172.09c4.143 0 7.5-3.358 7.5-7.5s-3.357-7.5-7.5-7.5h-172.09c-4.143 0-7.5 3.358-7.5 7.5s3.357 7.5 7.5 7.5z"/><path d="m327.872 471.5h63.06c4.143 0 7.5-3.358 7.5-7.5s-3.357-7.5-7.5-7.5h-63.06c-4.143 0-7.5 3.358-7.5 7.5s3.357 7.5 7.5 7.5z"/><g><path d="m133.63 339.5c-2.481 0-4.809-1.229-6.207-3.292l-12.199-18c-2.324-3.429-1.429-8.092 2-10.416s8.093-1.429 10.416 2.001l5.493 8.105 10.81-18.657c2.077-3.584 6.667-4.804 10.249-2.73 3.584 2.077 4.807 6.666 2.729 10.25l-16.801 29c-.8 1.355-2.861 3.739-6.49 3.739z"/></g></g></g></svg>